<svg version="1.1" id="Layer_1" xmlns="http://www.w3.org/2000/svg" xmlns:xlink="http://www.w3.org/1999/xlink" x="0px" y="0px"
	 width="100%" viewBox="0 0 461 228" enable-background="new 0 0 461 228" xml:space="preserve">
<path fill="#FFFFFE" opacity="1.000000" stroke="none" 
	d="
M1.000000,154.000000 
	C1.000000,108.312439 1.000000,62.624878 1.389386,16.468254 
	C9.827330,14.827188 13.207150,9.329592 11.000000,1.000000 
	C57.020893,1.000000 103.041786,1.000000 149.483795,1.394112 
	C148.316498,7.270446 149.406479,12.020336 153.276947,13.999504 
	C155.524658,15.148870 158.592361,16.413189 160.693283,15.745305 
	C164.215683,14.625524 167.260605,12.003725 170.607422,9.952091 
	C175.936523,15.869157 181.120972,17.664391 186.010300,14.988232 
	C191.065796,12.221122 192.733841,7.544925 191.000000,1.000000 
	C237.020889,1.000000 283.041779,1.000000 329.483765,1.394107 
	C328.316528,7.270516 329.406555,12.020394 333.276978,13.999495 
	C335.524689,15.148853 338.592377,16.413191 340.693298,15.745298 
	C344.215698,14.625504 347.260590,12.003694 350.607391,9.952047 
	C355.936432,15.869120 361.120911,17.664371 366.010254,14.988235 
	C371.065887,12.221071 372.733887,7.544994 371.000000,1.000000 
	C401.248566,1.000000 431.497162,1.000000 462.000000,1.000000 
	C462.000000,22.686899 462.000000,44.374790 461.646606,66.495216 
	C456.880585,63.631161 452.533630,60.220413 446.457611,62.962849 
	C445.134247,63.560158 443.588165,63.664093 442.037048,63.620895 
	C440.133057,56.703148 438.799316,50.134018 433.171112,45.228523 
	C424.132660,37.350636 413.631042,33.793255 401.970337,34.103577 
	C386.846802,34.506050 371.741516,35.617252 356.630707,36.465153 
	C346.326569,37.043343 336.006653,37.463898 325.728271,38.353535 
	C294.353027,41.069187 262.951172,42.555595 231.446121,41.663086 
	C180.313080,40.214542 129.202042,40.027122 78.383125,47.096928 
	C65.243179,48.924931 52.168297,51.409439 39.200417,54.223248 
	C29.546366,56.318016 26.914038,61.772705 29.795404,71.284477 
	C29.940020,71.761879 29.986614,72.274178 30.170107,72.733795 
	C33.116817,80.114723 36.065056,87.495148 39.066933,94.853661 
	C39.264362,95.337624 39.851776,95.715988 40.334854,96.021698 
	C45.560478,99.328712 52.673309,101.086472 49.222500,110.300529 
	C48.230679,112.948822 50.136986,116.712601 50.816231,119.943550 
	C51.140934,121.488075 51.703354,122.982613 52.185280,124.590446 
	C51.146492,124.965263 50.545441,125.237923 49.915958,125.400452 
	C44.752140,126.733635 39.219444,127.523132 37.915966,134.185089 
	C37.819157,134.679871 36.981735,135.426025 36.537968,135.392960 
	C33.438663,135.162064 31.579424,135.790695 31.482708,139.584488 
	C31.417868,142.127945 29.403751,144.680923 29.542498,147.157913 
	C29.826109,152.221115 31.029011,157.227997 31.746571,162.273254 
	C32.307831,166.219589 32.708183,170.188782 33.356445,175.628036 
	C35.817951,176.886047 39.682739,179.120300 43.749550,180.890427 
	C55.291653,185.914246 67.618820,186.369308 79.946991,186.882721 
	C94.220627,187.477173 108.483620,188.323669 122.754448,188.992172 
	C126.001236,189.144257 129.261230,189.014572 131.620117,189.014572 
	C134.488083,190.922989 136.960388,192.568130 139.927032,194.542236 
	C141.685104,191.102966 143.112457,188.310638 144.714935,185.175751 
	C145.999634,187.812866 147.460617,190.811890 149.408035,194.809402 
	C149.722916,192.318817 149.867706,191.173706 150.348694,189.916840 
	C151.730515,189.143600 152.776108,188.482132 154.069885,187.663651 
	C155.123642,189.757278 155.975067,191.448944 156.474487,192.441208 
	C160.624664,192.441208 164.144394,192.335968 167.655731,192.462753 
	C175.337967,192.740112 183.015869,193.136749 190.696320,193.466492 
	C190.803207,193.471085 190.920227,193.239304 191.472412,193.034973 
	C194.092377,193.301376 196.271606,193.947174 198.452606,193.953262 
	C216.762970,194.004349 235.074875,194.061142 253.383911,193.876053 
	C276.200928,193.645416 299.014618,192.988480 321.831573,192.872635 
	C354.963104,192.704391 388.116455,193.585144 420.770752,186.055054 
	C433.959808,183.013657 436.568207,180.957718 439.162598,167.261200 
	C439.564301,165.140350 439.964447,162.996429 440.080475,160.847794 
	C441.139587,141.235291 442.135590,121.619385 443.525421,102.055290 
	C449.852051,104.727730 455.457336,105.258942 460.145996,99.577789 
	C460.490967,99.159836 461.369507,99.182297 462.000000,99.000000 
	C462.000000,142.302948 462.000000,185.605896 462.000000,228.954422 
	C308.333344,228.954422 154.666672,228.954422 1.000000,228.954422 
	C1.000000,218.255600 1.000000,207.596466 1.381871,196.462875 
	C8.846582,194.212341 12.467144,190.238434 11.960951,184.796066 
	C11.434554,179.136475 7.678297,176.122116 1.000000,176.000000 
	C1.000000,175.555557 1.000000,175.111099 1.403931,174.333481 
	C6.217350,174.192551 9.446394,172.486511 11.070280,168.220932 
	C13.776922,161.111221 9.731751,155.402298 1.000000,154.000000 
z"/>
<path fill="#FBFAF9" opacity="1.000000" stroke="none" 
	d="
M442.144653,63.995255 
	C443.588165,63.664093 445.134247,63.560158 446.457611,62.962849 
	C452.533630,60.220413 456.880585,63.631161 461.646606,66.963875 
	C462.000000,77.354225 462.000000,87.708458 462.000000,98.531342 
	C461.369507,99.182297 460.490967,99.159836 460.145996,99.577789 
	C455.457336,105.258942 449.852051,104.727730 443.461487,101.590164 
	C442.729675,88.714554 442.437164,76.354904 442.144653,63.995255 
z"/>
<path fill="#FBFBFB" opacity="1.000000" stroke="none" 
	d="
M190.531342,1.000000 
	C192.733841,7.544925 191.065796,12.221122 186.010300,14.988232 
	C181.120972,17.664391 175.936523,15.869157 170.607422,9.952091 
	C167.260605,12.003725 164.215683,14.625524 160.693283,15.745305 
	C158.592361,16.413189 155.524658,15.148870 153.276947,13.999504 
	C149.406479,12.020336 148.316498,7.270446 149.952454,1.394112 
	C163.354233,1.000000 176.708450,1.000000 190.531342,1.000000 
z"/>
<path fill="#FBFBFB" opacity="1.000000" stroke="none" 
	d="
M370.531342,1.000000 
	C372.733887,7.544994 371.065887,12.221071 366.010254,14.988235 
	C361.120911,17.664371 355.936432,15.869120 350.607391,9.952047 
	C347.260590,12.003694 344.215698,14.625504 340.693298,15.745298 
	C338.592377,16.413191 335.524689,15.148853 333.276978,13.999495 
	C329.406555,12.020394 328.316528,7.270516 329.952423,1.394107 
	C343.354218,1.000000 356.708466,1.000000 370.531342,1.000000 
z"/>
<path fill="#FBFBFB" opacity="1.000000" stroke="none" 
	d="
M1.000000,154.468414 
	C9.731751,155.402298 13.776922,161.111221 11.070280,168.220932 
	C9.446394,172.486511 6.217350,174.192551 1.403931,174.000153 
	C1.000000,167.645599 1.000000,161.291214 1.000000,154.468414 
z"/>
<path fill="#FBFBFB" opacity="1.000000" stroke="none" 
	d="
M1.000000,176.428467 
	C7.678297,176.122116 11.434554,179.136475 11.960951,184.796066 
	C12.467144,190.238434 8.846582,194.212341 1.381871,195.994217 
	C1.000000,194.285645 1.000000,192.571289 1.388583,190.421631 
	C2.846433,188.861053 5.022707,187.247467 4.781353,186.700302 
	C3.997504,184.923309 2.328320,183.536835 0.999998,182.000000 
	C1.000000,180.285645 1.000000,178.571289 1.000000,176.428467 
z"/>
<path fill="#FBFBFB" opacity="1.000000" stroke="none" 
	d="
M10.513435,1.000000 
	C13.207150,9.329592 9.827330,14.827188 1.389386,15.999598 
	C1.000000,11.096558 1.000000,6.193115 1.000000,1.000000 
	C4.003051,1.000000 7.014961,1.000000 10.513435,1.000000 
z"/>
<path fill="#FDFDFD" opacity="1.000000" stroke="none" 
	d="
M0.999998,182.444168 
	C2.328320,183.536835 3.997504,184.923309 4.781353,186.700302 
	C5.022707,187.247467 2.846433,188.861053 1.388583,189.993164 
	C1.000000,187.629440 1.000000,185.258896 0.999998,182.444168 
z"/>
<path fill="#E8782F" opacity="1.000000" stroke="none" 
	d="
M442.037048,63.620895 
	C442.437164,76.354904 442.729675,88.714554 443.086090,101.539337 
	C442.135590,121.619385 441.139587,141.235291 440.080475,160.847794 
	C439.964447,162.996429 439.564301,165.140350 439.162598,167.261200 
	C436.568207,180.957718 433.959808,183.013657 420.770752,186.055054 
	C388.116455,193.585144 354.963104,192.704391 321.831573,192.872635 
	C299.014618,192.988480 276.200928,193.645416 253.383911,193.876053 
	C235.074875,194.061142 216.762970,194.004349 198.452606,193.953262 
	C196.271606,193.947174 194.092377,193.301376 191.463867,192.608276 
	C193.012939,185.178162 192.039261,179.053375 186.096146,175.969254 
	C188.296143,171.531158 190.147903,167.795563 192.452408,163.981903 
	C195.237961,163.891266 197.591797,164.056686 199.894012,163.784912 
	C200.920563,163.663742 201.843277,162.662903 202.813110,162.061310 
	C201.994339,161.307938 201.279922,160.350388 200.325455,159.862518 
	C199.486435,159.433670 198.364914,159.351105 197.391830,159.425446 
	C192.196060,159.822388 191.872864,156.997986 193.277802,153.184052 
	C196.323532,144.915939 199.334137,136.628967 202.699295,128.490372 
	C203.246063,127.168007 205.517227,125.795860 207.024673,125.757523 
	C216.683655,125.511879 226.356262,125.487511 236.012909,125.775330 
	C237.612076,125.822998 239.946152,127.415718 240.586945,128.884842 
	C243.376114,135.279663 245.680389,141.886932 248.131912,148.427856 
	C251.894669,158.467361 251.622940,158.890366 241.000229,159.976349 
	C240.716827,160.005341 240.458832,160.282822 239.237762,161.014084 
	C240.308365,162.069839 241.199692,163.721756 242.119751,163.737915 
	C252.614960,163.922180 263.115814,163.928421 273.610992,163.743546 
	C274.615326,163.725876 275.591370,162.101242 276.580536,161.222595 
	C276.429718,160.715927 276.278870,160.209259 276.128052,159.702591 
	C266.841736,161.322815 263.875946,155.463867 261.294678,148.603333 
	C250.988052,121.210014 240.489380,93.888924 230.047256,66.546654 
	C229.430405,64.931458 228.686279,63.364872 228.001389,61.775669 
	C227.442886,61.635147 226.884384,61.494625 226.325897,61.354103 
	C222.845383,67.003036 218.483612,72.296959 216.039734,78.363495 
	C206.408401,102.271652 197.419662,126.438171 188.057785,150.456299 
	C187.232193,152.574371 185.428970,154.311371 183.997589,155.833191 
	C183.619720,155.058197 183.392380,154.435867 183.017990,154.329056 
	C178.509430,153.042725 173.490677,155.348053 171.273926,159.651398 
	C168.983810,164.097137 170.103134,169.001434 174.089996,172.038147 
	C175.340851,172.990875 176.572845,173.968384 177.657333,174.812943 
	C174.239624,178.196564 171.219742,181.186340 167.583405,184.786407 
	C167.232239,180.713165 166.712631,177.971161 166.860062,175.265518 
	C166.961868,173.397217 167.985748,171.579132 168.597565,169.738617 
	C166.606110,169.159088 164.584534,168.011597 162.629333,168.115341 
	C158.222168,168.349167 156.473465,166.660431 156.964066,162.324066 
	C157.111237,161.023163 156.850235,159.676102 157.022461,158.152924 
	C162.580109,153.438934 167.854950,148.878220 173.215744,144.420868 
	C176.807800,141.434174 176.381805,138.876816 172.735901,136.292099 
	C171.496506,137.658035 170.450180,138.958450 169.255585,140.104309 
	C160.176041,148.813568 150.283722,156.154602 136.881744,155.314896 
	C115.062706,153.947815 97.758377,135.155106 96.955269,112.866760 
	C96.529922,101.062424 99.251541,90.691925 108.887009,83.115089 
	C120.937500,73.639214 134.795563,71.560013 149.467117,74.245415 
	C155.144348,75.284546 159.659653,78.380722 160.506226,84.871094 
	C160.544434,85.164108 160.839691,85.423599 161.199615,85.987671 
	C162.451935,85.907883 163.862366,85.818016 165.483032,85.714752 
	C166.024002,78.992653 166.538635,72.597740 167.045609,66.298065 
	C155.756226,61.854858 144.571091,60.397419 133.251648,62.733932 
	C109.686096,67.598244 90.433243,88.825386 87.229095,112.833885 
	C84.196617,135.556137 98.967140,159.680542 119.765213,165.150772 
	C130.043457,167.854111 140.207901,165.973251 150.002686,162.563904 
	C150.475159,167.673599 150.948898,172.330505 151.597366,178.705002 
	C148.365158,183.517151 148.151642,184.518921 150.012482,190.028595 
	C149.867706,191.173706 149.722916,192.318817 149.408035,194.809402 
	C147.460617,190.811890 145.999634,187.812866 144.714935,185.175751 
	C143.112457,188.310638 141.685104,191.102966 139.927032,194.542236 
	C136.960388,192.568130 134.488083,190.922989 131.620117,189.014572 
	C129.261230,189.014572 126.001236,189.144257 122.754448,188.992172 
	C108.483620,188.323669 94.220627,187.477173 79.946991,186.882721 
	C67.618820,186.369308 55.291653,185.914246 43.749550,180.890427 
	C39.682739,179.120300 35.817951,176.886047 33.356445,175.628036 
	C32.708183,170.188782 32.307831,166.219589 31.746571,162.273254 
	C31.029011,157.227997 29.826109,152.221115 29.542498,147.157913 
	C29.403751,144.680923 31.417868,142.127945 31.482708,139.584488 
	C31.579424,135.790695 33.438663,135.162064 36.537968,135.392960 
	C36.981735,135.426025 37.819157,134.679871 37.915966,134.185089 
	C39.219444,127.523132 44.752140,126.733635 49.915958,125.400452 
	C50.545441,125.237923 51.146492,124.965263 52.185280,124.590446 
	C51.703354,122.982613 51.140934,121.488075 50.816231,119.943550 
	C50.136986,116.712601 48.230679,112.948822 49.222500,110.300529 
	C52.673309,101.086472 45.560478,99.328712 40.334854,96.021698 
	C39.851776,95.715988 39.264362,95.337624 39.066933,94.853661 
	C36.065056,87.495148 33.116817,80.114723 30.170107,72.733795 
	C29.986614,72.274178 29.940020,71.761879 29.795404,71.284477 
	C26.914038,61.772705 29.546366,56.318016 39.200417,54.223248 
	C52.168297,51.409439 65.243179,48.924931 78.383125,47.096928 
	C129.202042,40.027122 180.313080,40.214542 231.446121,41.663086 
	C262.951172,42.555595 294.353027,41.069187 325.728271,38.353535 
	C336.006653,37.463898 346.326569,37.043343 356.630707,36.465153 
	C371.741516,35.617252 386.846802,34.506050 401.970337,34.103577 
	C413.631042,33.793255 424.132660,37.350636 433.171112,45.228523 
	C438.799316,50.134018 440.133057,56.703148 442.037048,63.620895 
M296.838776,117.500069 
	C296.837402,127.660645 296.839478,137.821213 296.833618,147.981796 
	C296.828186,157.467224 295.779449,158.737305 286.519196,159.071976 
	C283.040436,159.197693 282.576050,160.575500 283.686981,163.638229 
	C285.147430,163.712036 286.612274,163.847382 288.077423,163.850082 
	C297.071991,163.866638 306.067749,163.914902 315.059387,163.749252 
	C315.908875,163.733612 316.732483,162.311630 317.568115,161.542587 
	C316.761749,160.745834 316.010193,159.878021 315.119446,159.190582 
	C314.804321,158.947418 314.149323,159.154739 313.650055,159.138702 
	C304.176392,158.834518 303.166443,157.793747 303.165741,148.320206 
	C303.164337,129.164963 303.165344,110.009712 303.165344,90.854462 
	C303.165344,88.433487 303.165344,86.012505 303.165344,83.591530 
	C314.443054,96.866196 324.642761,110.523987 334.847656,124.177879 
	C345.090515,137.882599 355.338531,151.583450 365.467773,165.130142 
	C369.986725,164.062485 370.986298,161.526962 370.956696,157.446365 
	C370.763580,130.796951 370.844055,104.145447 370.871124,77.494659 
	C370.878052,70.677063 372.013123,69.437233 378.755524,68.478416 
	C379.905518,68.314873 381.221985,68.567047 382.192322,68.085136 
	C383.417145,67.476830 384.365784,66.312408 385.433563,65.387894 
	C385.136566,65.009949 384.839569,64.632011 384.542542,64.254066 
	C373.458710,64.254066 362.374908,64.254066 351.085785,64.254066 
	C351.146332,65.625755 351.194733,66.721794 351.249481,67.962120 
	C352.492523,68.047127 353.469482,68.089706 354.441345,68.184189 
	C363.326935,69.048019 364.138885,69.950211 364.139465,78.944817 
	C364.140656,97.433815 364.139801,115.922821 364.139801,134.411819 
	C364.139801,136.645386 364.139832,138.878937 364.139832,142.391891 
	C362.397247,140.169525 361.479767,139.051926 360.618164,137.892822 
	C343.139069,114.378098 325.682495,90.846619 308.150848,67.371155 
	C307.142365,66.020782 305.575317,64.224998 304.195984,64.159554 
	C297.265991,63.830791 290.311981,64.008774 283.366394,64.008774 
	C283.141388,64.655991 282.916382,65.303207 282.691376,65.950417 
	C284.074280,66.698929 285.391235,67.913109 286.850861,68.119835 
	C295.841095,69.393036 296.829254,70.419243 296.833405,79.522049 
	C296.839050,91.848045 296.835785,104.174049 296.838776,117.500069 
z"/>
<path fill="#E3752E" opacity="1.000000" stroke="none" 
	d="
M156.776215,158.350189 
	C156.850235,159.676102 157.111237,161.023163 156.964066,162.324066 
	C156.473465,166.660431 158.222168,168.349167 162.629333,168.115341 
	C164.584534,168.011597 166.606110,169.159088 168.597565,169.738617 
	C167.985748,171.579132 166.961868,173.397217 166.860062,175.265518 
	C166.712631,177.971161 167.232239,180.713165 167.583405,184.786407 
	C171.219742,181.186340 174.239624,178.196564 177.657333,174.812943 
	C176.572845,173.968384 175.340851,172.990875 174.089996,172.038147 
	C170.103134,169.001434 168.983810,164.097137 171.273926,159.651398 
	C173.490677,155.348053 178.509430,153.042725 183.017990,154.329056 
	C183.392380,154.435867 183.619720,155.058197 183.833557,156.148712 
	C181.034454,158.191422 178.317169,159.526428 174.790726,161.258987 
	C175.401337,162.034775 176.200562,163.050232 177.005386,164.433151 
	C178.382797,166.103104 179.754623,167.405579 181.126434,168.708054 
	C182.417557,167.159851 183.708694,165.611649 185.431046,163.977783 
	C187.908066,163.948074 189.953873,164.004028 191.999664,164.059967 
	C190.147903,167.795563 188.296143,171.531158 186.096146,175.969254 
	C192.039261,179.053375 193.012939,185.178162 191.023956,192.691147 
	C190.920227,193.239304 190.803207,193.471085 190.696320,193.466492 
	C183.015869,193.136749 175.337967,192.740112 167.655731,192.462753 
	C164.144394,192.335968 160.624664,192.441208 156.474487,192.441208 
	C155.975067,191.448944 155.123642,189.757278 154.069885,187.663651 
	C152.776108,188.482132 151.730515,189.143600 150.348694,189.916840 
	C148.151642,184.518921 148.365158,183.517151 151.597366,178.705002 
	C150.948898,172.330505 150.475159,167.673599 150.277100,162.347137 
	C152.627274,160.568436 154.701736,159.459305 156.776215,158.350189 
M179.642212,189.946182 
	C181.397690,188.812912 183.412567,187.904266 184.725601,186.387894 
	C185.052475,186.010406 183.409729,183.076752 182.115631,182.427475 
	C181.157196,181.946579 178.177231,183.079712 178.056885,183.814651 
	C177.746185,185.711853 178.521500,187.786865 179.642212,189.946182 
z"/>
<path fill="#FEFCFA" opacity="1.000000" stroke="none" 
	d="
M296.837555,117.000061 
	C296.835785,104.174049 296.839050,91.848045 296.833405,79.522049 
	C296.829254,70.419243 295.841095,69.393036 286.850861,68.119835 
	C285.391235,67.913109 284.074280,66.698929 282.691376,65.950417 
	C282.916382,65.303207 283.141388,64.655991 283.366394,64.008774 
	C290.311981,64.008774 297.265991,63.830791 304.195984,64.159554 
	C305.575317,64.224998 307.142365,66.020782 308.150848,67.371155 
	C325.682495,90.846619 343.139069,114.378098 360.618164,137.892822 
	C361.479767,139.051926 362.397247,140.169525 364.139832,142.391891 
	C364.139832,138.878937 364.139801,136.645386 364.139801,134.411819 
	C364.139801,115.922821 364.140656,97.433815 364.139465,78.944817 
	C364.138885,69.950211 363.326935,69.048019 354.441345,68.184189 
	C353.469482,68.089706 352.492523,68.047127 351.249481,67.962120 
	C351.194733,66.721794 351.146332,65.625755 351.085785,64.254066 
	C362.374908,64.254066 373.458710,64.254066 384.542542,64.254066 
	C384.839569,64.632011 385.136566,65.009949 385.433563,65.387894 
	C384.365784,66.312408 383.417145,67.476830 382.192322,68.085136 
	C381.221985,68.567047 379.905518,68.314873 378.755524,68.478416 
	C372.013123,69.437233 370.878052,70.677063 370.871124,77.494659 
	C370.844055,104.145447 370.763580,130.796951 370.956696,157.446365 
	C370.986298,161.526962 369.986725,164.062485 365.467773,165.130142 
	C355.338531,151.583450 345.090515,137.882599 334.847656,124.177879 
	C324.642761,110.523987 314.443054,96.866196 303.165344,83.591530 
	C303.165344,86.012505 303.165344,88.433487 303.165344,90.854462 
	C303.165344,110.009712 303.164337,129.164963 303.165741,148.320206 
	C303.166443,157.793747 304.176392,158.834518 313.650055,159.138702 
	C314.149323,159.154739 314.804321,158.947418 315.119446,159.190582 
	C316.010193,159.878021 316.761749,160.745834 317.568115,161.542572 
	C316.732483,162.311630 315.908875,163.733612 315.059387,163.749252 
	C306.067749,163.914902 297.071991,163.866638 288.077423,163.850082 
	C286.612274,163.847382 285.147430,163.712036 283.686981,163.638229 
	C282.576050,160.575500 283.040436,159.197693 286.519196,159.071976 
	C295.779449,158.737305 296.828186,157.467224 296.833618,147.981796 
	C296.839478,137.821213 296.837402,127.660645 296.837555,117.000061 
z"/>
<path fill="#FEFAF7" opacity="1.000000" stroke="none" 
	d="
M176.999786,164.065674 
	C176.200562,163.050232 175.401337,162.034775 174.790726,161.258987 
	C178.317169,159.526428 181.034454,158.191422 183.915771,156.540894 
	C185.428970,154.311371 187.232193,152.574371 188.057785,150.456299 
	C197.419662,126.438171 206.408401,102.271652 216.039734,78.363495 
	C218.483612,72.296959 222.845383,67.003036 226.325897,61.354103 
	C226.884384,61.494625 227.442886,61.635147 228.001389,61.775669 
	C228.686279,63.364872 229.430405,64.931458 230.047256,66.546654 
	C240.489380,93.888924 250.988052,121.210014 261.294678,148.603333 
	C263.875946,155.463867 266.841736,161.322815 276.128052,159.702591 
	C276.278870,160.209259 276.429718,160.715927 276.580536,161.222595 
	C275.591370,162.101242 274.615326,163.725876 273.610992,163.743546 
	C263.115814,163.928421 252.614960,163.922180 242.119751,163.737915 
	C241.199692,163.721756 240.308365,162.069839 239.237762,161.014084 
	C240.458832,160.282822 240.716827,160.005341 241.000229,159.976349 
	C251.622940,158.890366 251.894669,158.467361 248.131912,148.427856 
	C245.680389,141.886932 243.376114,135.279663 240.586945,128.884842 
	C239.946152,127.415718 237.612076,125.822998 236.012909,125.775330 
	C226.356262,125.487511 216.683655,125.511879 207.024673,125.757523 
	C205.517227,125.795860 203.246063,127.168007 202.699295,128.490372 
	C199.334137,136.628967 196.323532,144.915939 193.277802,153.184052 
	C191.872864,156.997986 192.196060,159.822388 197.391830,159.425446 
	C198.364914,159.351105 199.486435,159.433670 200.325455,159.862518 
	C201.279922,160.350388 201.994339,161.307938 202.813110,162.061310 
	C201.843277,162.662903 200.920563,163.663742 199.894012,163.784912 
	C197.591797,164.056686 195.237961,163.891266 192.452408,163.981903 
	C189.953873,164.004028 187.908066,163.948074 184.992096,163.900085 
	C181.747864,163.960571 179.373825,164.013123 176.999786,164.065674 
M215.586502,119.613289 
	C222.456497,119.613289 229.326492,119.613289 236.941727,119.613289 
	C231.635147,105.579147 226.753448,92.668709 221.544281,78.892181 
	C216.164810,92.922859 211.155380,105.988441 205.931717,119.612778 
	C209.357071,119.612778 211.989487,119.612778 215.586502,119.613289 
z"/>
<path fill="#FEFBFA" opacity="1.000000" stroke="none" 
	d="
M157.022461,158.152924 
	C154.701736,159.459305 152.627274,160.568436 150.278381,161.894348 
	C140.207901,165.973251 130.043457,167.854111 119.765213,165.150772 
	C98.967140,159.680542 84.196617,135.556137 87.229095,112.833885 
	C90.433243,88.825386 109.686096,67.598244 133.251648,62.733932 
	C144.571091,60.397419 155.756226,61.854858 167.045609,66.298065 
	C166.538635,72.597740 166.024002,78.992653 165.483032,85.714752 
	C163.862366,85.818016 162.451935,85.907883 161.199615,85.987671 
	C160.839691,85.423599 160.544434,85.164108 160.506226,84.871094 
	C159.659653,78.380722 155.144348,75.284546 149.467117,74.245415 
	C134.795563,71.560013 120.937500,73.639214 108.887009,83.115089 
	C99.251541,90.691925 96.529922,101.062424 96.955269,112.866760 
	C97.758377,135.155106 115.062706,153.947815 136.881744,155.314896 
	C150.283722,156.154602 160.176041,148.813568 169.255585,140.104309 
	C170.450180,138.958450 171.496506,137.658035 172.735901,136.292099 
	C176.381805,138.876816 176.807800,141.434174 173.215744,144.420868 
	C167.854950,148.878220 162.580109,153.438934 157.022461,158.152924 
z"/>
<path fill="#E7762E" opacity="1.000000" stroke="none" 
	d="
M179.252625,189.868530 
	C178.521500,187.786865 177.746185,185.711853 178.056885,183.814651 
	C178.177231,183.079712 181.157196,181.946579 182.115631,182.427475 
	C183.409729,183.076752 185.052475,186.010406 184.725601,186.387894 
	C183.412567,187.904266 181.397690,188.812912 179.252625,189.868530 
z"/>
<path fill="#E7762E" opacity="1.000000" stroke="none" 
	d="
M177.005386,164.433151 
	C179.373825,164.013123 181.747864,163.960571 184.560852,163.985733 
	C183.708694,165.611649 182.417557,167.159851 181.126434,168.708054 
	C179.754623,167.405579 178.382797,166.103104 177.005386,164.433151 
z"/>
<path fill="#E97C36" opacity="1.000000" stroke="none" 
	d="
M215.104187,119.613037 
	C211.989487,119.612778 209.357071,119.612778 205.931717,119.612778 
	C211.155380,105.988441 216.164810,92.922859 221.544281,78.892181 
	C226.753448,92.668709 231.635147,105.579147 236.941727,119.613289 
	C229.326492,119.613289 222.456497,119.613289 215.104187,119.613037 
z"/>
</svg>